<?xml version="1.0" standalone="no"?>
<!DOCTYPE svg PUBLIC "-//W3C//DTD SVG 20010904//EN"
 "http://www.w3.org/TR/2001/REC-SVG-20010904/DTD/svg10.dtd">
<svg version="1.0" xmlns="http://www.w3.org/2000/svg"
 width="512.000000pt" height="512.000000pt" viewBox="0 0 512.000000 512.000000"
 preserveAspectRatio="xMidYMid meet">

<g transform="translate(0.000000,512.000000) scale(0.100000,-0.100000)"
fill="#000000" stroke="none">
<path d="M2155 5114 c-465 -47 -858 -194 -1207 -454 -433 -321 -741 -778 -873
-1294 -56 -217 -69 -332 -69 -581 0 -248 13 -361 68 -579 147 -582 526 -1095
1042 -1413 l69 -43 -143 0 c-138 0 -144 -1 -167 -25 l-25 -24 0 -276 0 -275
-225 0 -225 0 0 225 0 225 125 0 c120 0 127 1 150 25 32 31 32 69 0 100 -24
25 -27 25 -200 25 -173 0 -176 0 -200 -25 l-25 -24 0 -326 0 -326 25 -25 24
-24 2058 2 2058 3 66 26 c37 14 88 38 114 53 63 37 153 130 188 194 51 94 298
686 318 761 23 88 24 161 4 254 -25 118 -73 192 -238 368 -85 91 -160 162
-174 165 -52 13 -103 -37 -89 -88 3 -13 48 -69 100 -124 l95 -101 -159 -152
c-88 -84 -164 -151 -168 -149 -11 4 -222 224 -222 231 0 4 25 44 55 91 123
188 230 436 290 670 55 217 69 333 69 581 0 248 -14 364 -69 580 -112 438
-364 857 -689 1146 -93 83 -120 94 -163 64 -25 -18 -37 -59 -23 -84 5 -11 64
-72 131 -137 264 -259 442 -539 553 -874 183 -549 147 -1116 -104 -1637 -116
-241 -237 -411 -429 -604 -185 -185 -371 -318 -608 -432 l-108 -52 -820 0
-821 0 -144 72 c-999 493 -1461 1629 -1094 2684 107 307 275 572 518 815 341
341 736 542 1221 620 155 25 488 26 640 1 286 -47 533 -134 776 -272 52 -30
107 -55 120 -55 31 0 69 38 69 69 0 40 -19 60 -114 116 -241 142 -540 246
-831 290 -104 16 -433 28 -520 19z m2785 -3792 c58 -153 25 -319 -87 -443 -20
-22 -40 -39 -47 -39 -6 0 -21 17 -34 38 -13 20 -61 78 -107 127 l-84 90 157
151 c113 110 160 149 169 142 7 -5 22 -35 33 -66z m-550 -246 c230 -241 279
-300 265 -314 -3 -4 -268 -8 -588 -10 l-582 -3 110 72 c189 123 345 255 475
403 45 53 84 96 85 96 0 0 106 -110 235 -244z m335 -567 c-56 -130 -94 -201
-115 -214 -7 -4 -10 44 -10 149 0 153 0 156 23 160 83 17 124 28 137 36 8 5
16 7 18 5 2 -1 -22 -63 -53 -136z m-3275 -134 l0 -225 -225 0 -225 0 0 225 0
225 225 0 225 0 0 -225z m600 0 l0 -225 -225 0 -225 0 0 225 0 225 225 0 225
0 0 -225z m600 0 l0 -225 -225 0 -225 0 0 225 0 225 225 0 225 0 0 -225z m600
0 l0 -225 -225 0 -225 0 0 225 0 225 225 0 225 0 0 -225z m600 0 l0 -225 -225
0 -225 0 0 225 0 225 225 0 225 0 0 -225z m600 15 l0 -210 -27 -12 c-17 -7
-106 -13 -225 -16 l-198 -4 0 226 0 226 225 0 225 0 0 -210z"/>
<path d="M2185 4814 c-161 -18 -330 -66 -450 -127 -95 -50 -199 -144 -241
-219 -26 -48 -29 -61 -29 -148 0 -86 3 -102 32 -163 87 -184 259 -378 452
-509 266 -181 494 -184 759 -9 153 102 292 241 393 394 73 110 101 183 107
272 6 108 -21 170 -117 265 -111 111 -250 177 -464 221 -100 20 -347 33 -442
23z m433 -173 c157 -34 285 -94 365 -170 38 -36 73 -89 64 -98 -3 -2 -32 7
-64 21 -87 36 -244 81 -358 102 -139 25 -440 25 -580 0 -107 -19 -290 -71
-369 -106 -27 -11 -51 -19 -53 -16 -9 9 28 64 69 102 103 95 272 159 498 188
81 10 337 -4 428 -23z m17 -301 c108 -21 249 -65 340 -105 l57 -25 -33 -58
c-44 -80 -114 -165 -206 -253 -94 -90 -175 -147 -281 -197 -73 -35 -82 -37
-177 -37 -95 0 -104 2 -177 37 -107 51 -188 108 -286 202 -121 116 -246 287
-225 307 4 4 47 23 94 43 128 52 245 81 454 110 71 10 344 -5 440 -24z"/>
<path d="M966 4100 c-123 -32 -277 -156 -384 -312 -116 -170 -214 -427 -242
-635 -20 -143 -9 -349 23 -448 42 -130 114 -222 206 -267 103 -50 302 -28 489
52 71 30 89 76 51 124 -26 33 -57 33 -144 1 -37 -14 -97 -32 -132 -39 -58 -13
-65 -12 -71 3 -4 9 -7 99 -7 201 0 152 4 205 23 298 56 279 174 525 352 736
30 36 60 65 66 65 27 2 143 -156 203 -276 89 -177 126 -315 119 -451 -3 -75
-9 -96 -37 -149 -34 -63 -95 -132 -188 -214 -61 -52 -68 -85 -28 -124 32 -33
63 -31 111 3 120 88 224 214 265 321 27 70 36 221 20 316 -28 158 -109 354
-208 504 -73 110 -192 230 -261 265 -61 31 -161 42 -226 26z m78 -152 c-4 -7
-35 -46 -69 -88 -170 -211 -300 -501 -351 -785 -13 -72 -18 -153 -18 -292 l-1
-192 -23 22 c-34 32 -70 106 -88 184 -25 105 -14 335 21 472 85 326 268 600
452 671 56 22 88 25 77 8z"/>
<path d="M3540 4101 c-211 -69 -447 -414 -525 -764 -23 -106 -17 -269 14 -348
86 -222 382 -447 716 -544 199 -58 332 -43 431 47 66 61 106 129 136 233 20
70 23 102 23 255 0 133 -4 195 -19 260 -29 135 -72 256 -136 385 -142 289
-346 470 -542 480 -40 3 -84 1 -98 -4z m196 -176 c29 -14 82 -56 120 -93 199
-197 334 -543 334 -856 0 -173 -37 -303 -104 -365 l-25 -24 6 119 c21 418
-130 869 -394 1181 -29 34 -53 65 -53 69 0 12 63 -6 116 -31z m-196 -111 c174
-206 297 -462 350 -730 23 -113 35 -357 23 -454 l-8 -65 -35 3 c-19 2 -74 17
-122 32 -259 86 -491 257 -569 417 -44 91 -36 265 18 418 30 85 103 231 145
294 47 70 118 151 131 150 7 0 37 -29 67 -65z"/>
<path d="M2255 2995 c-51 -18 -120 -91 -134 -141 -25 -89 -6 -161 58 -225 92
-93 218 -92 311 1 93 93 93 217 0 310 -66 67 -148 86 -235 55z m130 -160 c14
-13 25 -36 25 -50 0 -33 -42 -75 -75 -75 -33 0 -75 42 -75 75 0 33 42 75 75
75 14 0 37 -11 50 -25z"/>
<path d="M1336 2309 c-49 -5 -136 -20 -192 -34 -279 -67 -424 -165 -469 -318
-106 -358 426 -936 970 -1053 100 -22 245 -20 321 4 184 58 254 190 254 477 0
307 -90 589 -236 745 -105 110 -212 159 -399 180 -101 11 -122 11 -249 -1z
m332 -164 c34 -8 84 -26 110 -39 171 -87 294 -390 294 -727 0 -70 -4 -134 -9
-142 -7 -12 -25 -10 -122 14 -341 87 -657 297 -871 580 -59 79 -130 192 -130
209 0 13 142 68 232 90 171 41 359 46 496 15z m-630 -510 c223 -256 541 -448
881 -534 l75 -18 -33 -17 c-258 -134 -844 169 -1071 553 -59 101 -91 225 -74
288 5 19 16 8 74 -80 38 -56 104 -143 148 -192z"/>
<path d="M3070 2309 c-139 -16 -252 -59 -329 -123 -100 -84 -169 -197 -225
-368 -82 -250 -91 -566 -22 -733 97 -230 449 -263 821 -77 156 78 293 180 425
318 296 308 352 641 136 801 -73 55 -151 92 -266 127 -165 50 -393 73 -540 55z
m241 -149 c57 -6 141 -20 187 -30 91 -22 232 -77 232 -91 0 -5 -19 -39 -41
-76 -226 -369 -593 -631 -1016 -726 -61 -14 -63 -14 -69 7 -11 35 -8 245 6
331 39 255 149 464 279 530 110 55 244 73 422 55z m541 -352 c-61 -326 -525
-715 -917 -767 -89 -12 -173 -3 -226 25 l-33 16 93 24 c417 108 800 385 1024
741 l52 82 9 -30 c6 -20 5 -52 -2 -91z"/>
</g>
</svg>
